# xmcd
#
# Track frame offsets:
#	150
#	14280
#	30257
#	48309
#	62562
#	76004
#	93343
#	109371
#	125391
#	138835
#	154936
#
# Disc length: 2349 seconds
#
# Revision: 0
# Processed by: cddbd v1.4PL0 Copyright (c) Steve Scherf et al.
# Submitted via: dBpowerAMP V4.0
#
DISCID=7d092b0b
DTITLE=Rodney Hayden - Living The Good Life
DYEAR=2003
DGENRE=Country
TTITLE0=Living The Good Life
TTITLE1=Broke Down
TTITLE2=Goodbye To My Hometown
TTITLE3=Living Everyday Like It's Saturday Night
TTITLE4=Get On Your Mule And Ride
TTITLE5=The First Day
TTITLE6=Mr. Mockingbird
TTITLE7=Della's Long Brown Hair
TTITLE8=Trying To Get A Little Love
TTITLE9=Can't Wait To Get Back Home
TTITLE10=Son Of A Rolling Stone
EXTD=
EXTT0=
EXTT1=
EXTT2=
EXTT3=
EXTT4=
EXTT5=
EXTT6=
EXTT7=
EXTT8=
EXTT9=
EXTT10=
PLAYORDER=
